<?xml version="1.0" encoding="UTF-8"?>
<svg xmlns="http://www.w3.org/2000/svg" width="93.92" height="109.12" xmlns:xlink="http://www.w3.org/1999/xlink" viewBox="0 0 93.92 109.12">
  <defs>
    <style>
      .cls-1 {
        filter: url(#drop-shadow-1);
      }

      .cls-2 {
        filter: url(#drop-shadow-2);
      }

      .cls-3 {
        fill: #ffd860;
      }

      .cls-4 {
        fill: url(#_未命名的渐变_46-2);
      }

      .cls-5 {
        fill: url(#_未命名的渐变_75);
      }

      .cls-6 {
        fill: url(#_未命名的渐变_46);
      }

      .cls-7 {
        fill: url(#_未命名的渐变_64);
      }
    </style>
    <filter id="drop-shadow-1" filterUnits="userSpaceOnUse">
      <feOffset dx="0" dy="0"/>
      <feGaussianBlur result="blur" stdDeviation="5"/>
      <feFlood flood-color="#000" flood-opacity=".6"/>
      <feComposite in2="blur" operator="in"/>
      <feComposite in="SourceGraphic"/>
    </filter>
    <linearGradient id="_未命名的渐变_46" data-name="未命名的渐变 46" x1="-7.55" y1="43.5" x2="43.41" y2="94.46" gradientUnits="userSpaceOnUse">
      <stop offset="0" stop-color="#1a0"/>
      <stop offset="1" stop-color="#006500"/>
    </linearGradient>
    <linearGradient id="_未命名的渐变_46-2" data-name="未命名的渐变 46" x1="24.5" y1="42.34" x2="92.6" y2="110.44" xlink:href="#_未命名的渐变_46"/>
    <filter id="drop-shadow-2" filterUnits="userSpaceOnUse">
      <feOffset dx="0" dy="0"/>
      <feGaussianBlur result="blur-2" stdDeviation="5"/>
      <feFlood flood-color="#000" flood-opacity=".3"/>
      <feComposite in2="blur-2" operator="in"/>
      <feComposite in="SourceGraphic"/>
    </filter>
    <linearGradient id="_未命名的渐变_75" data-name="未命名的渐变 75" x1="25.5" y1="55.15" x2="40.76" y2="70.41" gradientUnits="userSpaceOnUse">
      <stop offset="0" stop-color="#fff21f"/>
      <stop offset=".01" stop-color="#feee1c"/>
      <stop offset=".1" stop-color="#fddc0c"/>
      <stop offset=".19" stop-color="#fcd003"/>
      <stop offset=".28" stop-color="#fccd00"/>
      <stop offset=".67" stop-color="#f1942e"/>
      <stop offset="1" stop-color="#e57a2b"/>
    </linearGradient>
    <linearGradient id="_未命名的渐变_64" data-name="未命名的渐变 64" x1="60.71" y1="55.15" x2="75.97" y2="70.41" gradientUnits="userSpaceOnUse">
      <stop offset="0" stop-color="#fff21f"/>
      <stop offset=".01" stop-color="#feee1c"/>
      <stop offset=".1" stop-color="#fddc0c"/>
      <stop offset=".19" stop-color="#fcd003"/>
      <stop offset=".28" stop-color="#fccd00"/>
      <stop offset=".67" stop-color="#f1942e"/>
      <stop offset="1" stop-color="#e57a2b"/>
    </linearGradient>
  </defs>
  <g id="_图层_1" data-name="图层 1" class="cls-1">
    <path class="cls-6" d="m9.94,27.66h14.8c2.21,0,4,1.79,4,4v77.46H9.94c-2.21,0-4-1.79-4-4V31.66c0-2.21,1.79-4,4-4Z"/>
    <path class="cls-4" d="m28.23,109.12V38.62h21.3s6.02,3.4,9.38,1.2c3.35-2.2,7.52-3.3,12.52-3.3,7.6,0,13.25,2.25,16.95,6.75,3.7,4.5,5.55,10.45,5.55,17.85v48H28.23Z"/>
  </g>
  <g id="_图层_2" data-name="图层 2" class="cls-2">
    <rect class="cls-5" x="24.32" y="53.98" width="17.61" height="17.61" rx="4" ry="4"/>
    <rect class="cls-7" x="59.54" y="53.98" width="17.61" height="17.61" rx="4" ry="4"/>
    <path class="cls-3" d="m45.93,71.59h9.61c2.21,0,4,1.79,4,4v13.61h-17.61v-13.61c0-2.21,1.79-4,4-4Z"/>
    <path class="cls-3" d="m37.13,80.39h4.8v13.61c0,2.21-1.79,4-4,4h-.8c-2.21,0-4-1.79-4-4v-9.61c0-2.21,1.79-4,4-4Z"/>
    <path class="cls-3" d="m59.54,80.39h4.8c2.21,0,4,1.79,4,4v9.61c0,2.21-1.79,4-4,4h-.8c-2.21,0-4-1.79-4-4v-13.61h0Z"/>
  </g>
</svg>